<svg width="532" height="266" viewBox="0 0 532 266" fill="none" xmlns="http://www.w3.org/2000/svg">
<path d="M180.626 218.871L163.785 224.544L3.30704 261.933L5.6836 182.306L152.078 131.526L180.626 218.871ZM180.626 218.871L282.251 184.634L286.897 183.069M340.903 164.874L425.687 136.311L450.427 119.276M340.903 164.874L321.039 116.435L283.529 86.2125L238.079 96.2588L259.021 127.988L269.23 152.883L286.897 183.069M340.903 164.874L286.897 183.069M450.427 119.276L527.737 66.0415L463.83 3.68227L371.313 60.1282C394.694 77.3885 443.251 113.382 450.427 119.276Z" stroke="url(#paint0_linear_122_184)" stroke-opacity="0.5" stroke-width="5"/>
<defs>
<linearGradient id="paint0_linear_122_184" x1="234.547" y1="88.4537" x2="278.863" y2="196.52" gradientUnits="userSpaceOnUse">
<stop stop-color="#054ACA" stop-opacity="0"/>
<stop offset="1" stop-color="#054ACA"/>
</linearGradient>
</defs>
</svg>
