<svg xmlns="http://www.w3.org/2000/svg" width="1221.003" height="87.564" viewBox="0 0 1221.003 87.564">
    <defs>
        <style>
            .cls-2{fill:#4285f4;opacity:.12;isolation:isolate}
        </style>
    </defs>
    <g id="Group_88852" opacity="0.3" transform="translate(-387.871 -1282.394)">
        <path id="Path_184564" d="M1526.061 1288.7c-161.14 31.315-205.557 63.13-394.982 64.843s-238.566-17.779-380.457-16.251c-89.966.969-157.839 17.974-208.6 16.251-119.99-4.072-152.133-43.68-152.133-43.68l-2.014 6.048a75.023 75.023 0 0 0 72 54.044h907.159c38.394-33.943 87.656-56.286 181.062-66.58 24.433-2.692 43.777-1.931 60.153 1.1a74.686 74.686 0 0 0-.243-21.01c-22.424-2.265-49.133-1.137-81.945 5.235z" class="cls-2"/>
        <path id="Path_184565" d="M1548.095 1303.368c-93.406 10.289-142.668 32.621-181.062 66.547h166.841a75 75 0 0 0 74.374-65.45c-16.376-3.027-35.72-3.788-60.153-1.097z" class="cls-2" transform="translate(0 .043)"/>
        <path id="Path_184566" d="M1548.095 1303.368c-93.406 10.289-142.668 32.621-181.062 66.547h166.841a75 75 0 0 0 74.374-65.45c-16.376-3.027-35.72-3.788-60.153-1.097z" transform="translate(0 .043)" style="isolation:isolate" fill="#fdcbc3" opacity="0.21"/>
    </g>
</svg>
