<svg xmlns:xlink="http://www.w3.org/1999/xlink" id="Capa_1" data-name="Capa 1" xmlns="http://www.w3.org/2000/svg" viewBox="0 0 32 32" width="32"  height="32" ><defs><style>.blog1{fill:#010002;}</style></defs><title>blog</title><path class="blog1" d="M227.21,227.2v6.13A25.88,25.88,0,0,1,253,259.2h6.16A32,32,0,0,0,227.21,227.2Z" transform="translate(-227.2 -227.2)" fill="#FFFFFF"></path><path class="blog1" d="M227.2,238.07v6.13a15,15,0,0,1,15,15h6.16A21.15,21.15,0,0,0,227.2,238.07Z" transform="translate(-227.2 -227.2)" fill="#FFFFFF"></path><path class="blog1" d="M231.46,250.66a4.25,4.25,0,1,0,4.26,4.25A4.26,4.26,0,0,0,231.46,250.66Z" transform="translate(-227.2 -227.2)" fill="#FFFFFF"></path></svg>