<svg xmlns:xlink="http://www.w3.org/1999/xlink" xmlns="http://www.w3.org/2000/svg" viewBox="1759 -421 16.1 32" width="12"  height="12" ><defs><style>.facebook{fill:#385c8e;}</style></defs><path class="facebook" d="M.5,17H4V31.4a.562.562,0,0,0,.5.6h5.9a.472.472,0,0,0,.5-.5V17.1h4a.472.472,0,0,0,.5-.5l.6-5.3a.6.6,0,0,0-.1-.4.52.52,0,0,0-.4-.2H11V7.4c0-1,.5-1.5,1.6-1.5h3a.472.472,0,0,0,.5-.5V.5a.472.472,0,0,0-.5-.5H11.2A7.681,7.681,0,0,0,6,2,5.351,5.351,0,0,0,4.2,6.9v3.9H.5a.472.472,0,0,0-.5.5v5.2A.472.472,0,0,0,.5,17Z" transform="translate(1759 -421)" fill="#FFFFFF"></path></svg>