<svg xmlns:xlink="http://www.w3.org/1999/xlink" xmlns="http://www.w3.org/2000/svg" viewBox="1826 -424 31.906 31.9" width="12"  height="12" ><defs><style>.linkedin{fill:#5082f6;}</style></defs><g transform="translate(1826 -424)" fill="#FFFFFF"><path class="a" d="M7.4,10.3H1a.472.472,0,0,0-.5.5V31.4a.472.472,0,0,0,.5.5H7.4a.472.472,0,0,0,.5-.5V10.8C8,10.5,7.7,10.3,7.4,10.3Z" fill="#FFFFFF"></path><path class="linkedin" d="M4.2,0A4.225,4.225,0,0,0,0,4.2,4.225,4.225,0,0,0,4.2,8.4,4.225,4.225,0,0,0,8.4,4.2,4.1,4.1,0,0,0,4.2,0Z" fill="#FFFFFF"></path><path class="linkedin" d="M23.8,9.7a7.192,7.192,0,0,0-5.6,2.4V10.8a.472.472,0,0,0-.5-.5H11.5a.472.472,0,0,0-.5.5V31.4a.472.472,0,0,0,.5.5h6.4a.472.472,0,0,0,.5-.5V21.2c0-3.4.9-4.8,3.3-4.8,2.6,0,2.8,2.1,2.8,5v10a.472.472,0,0,0,.5.5h6.4a.472.472,0,0,0,.5-.5V20.1C32,15,31,9.7,23.8,9.7Z" fill="#FFFFFF"></path></g></svg>