<svg xmlns:xlink="http://www.w3.org/1999/xlink" xmlns="http://www.w3.org/2000/svg" width="1667.217" height="97.903" viewBox="0 0 1667.217 97.903">
    <defs>
        <style>
            .cls-1,.cls-2{fill:#4285f4;opacity:.03;isolation:isolate}.cls-2{fill:#ff7b70}
        </style>
    </defs>
    <g id="Group_88696" data-name="Group 88696" transform="translate(-266.649 -614.878)">
        <path id="Path_183929" d="M344.449 651.463a389.744 389.744 0 0 0 69.333 9.6c93.946 4.461 210.244-24.051 284.585-46.185h-77.884c-94.749 21.669-188.952 39.76-276.034 36.585z" class="cls-1" data-name="Path 183929"/>
        <path id="Path_183930" d="M1893.279 638.767a1052.136 1052.136 0 0 1-230.16 15.268c-113.92-4.967-189.085-21.1-258.232-39.157h-276.762c187.434 27.979 188.569 82.983 447.833 97.034 127.722 6.922 234.89-28.456 317.321-73.145z" class="cls-1" data-name="Path 183930"/>
        <path id="Path_183931" d="M1893.279 638.767c14.279-7.741 27.815-15.76 40.587-23.889h-528.979c69.147 18.061 144.312 34.19 258.232 39.157a1052.136 1052.136 0 0 0 230.16-15.268z" class="cls-2" data-name="Path 183931"/>
        <path id="Path_183932" d="M620.483 614.878H266.649v9.947a403.837 403.837 0 0 0 77.8 26.638c87.082 3.175 181.285-14.916 276.034-36.585z" class="cls-2" data-name="Path 183932"/>
    </g>
</svg>