<svg xmlns:xlink="http://www.w3.org/1999/xlink" xmlns="http://www.w3.org/2000/svg" viewBox="1909 -418 32.014 26.2" width="12"  height="12" ><defs><style>.twitter{fill:#73a1fb;}</style></defs><path class="twitter" d="M31.3,3l-1.5.6a7.217,7.217,0,0,0,1.4-2.4c.1-.2,0-.4-.2-.6a.638.638,0,0,0-.6,0A17.832,17.832,0,0,1,26.8,2,7.177,7.177,0,0,0,22,0a6.914,6.914,0,0,0-6.9,6.9,2.769,2.769,0,0,0,.1.9A18.107,18.107,0,0,1,3.1,1.4c-.1-.2-.3-.2-.5-.2s-.3.1-.4.3A6.756,6.756,0,0,0,1.3,5,7.266,7.266,0,0,0,2.9,9.5,4.7,4.7,0,0,0,2,8.9a.446.446,0,0,0-.5,0,.55.55,0,0,0-.3.5v.1a6.724,6.724,0,0,0,3.4,5.9.9.9,0,0,1-.5-.1c-.2,0-.4,0-.5.2a.44.44,0,0,0-.1.5,7.013,7.013,0,0,0,5,4.6A12.33,12.33,0,0,1,2,22.5a7.569,7.569,0,0,1-1.5-.1c-.2,0-.5.1-.5.3a.481.481,0,0,0,.2.6,18.767,18.767,0,0,0,10,2.9A17.631,17.631,0,0,0,24,20.1,19.3,19.3,0,0,0,28.8,7.6V7a13.964,13.964,0,0,0,3.1-3.3.637.637,0,0,0,0-.6A.661.661,0,0,0,31.3,3Z" transform="translate(1909.039 -418)" fill="#FFFFFF"></path></svg>