<svg width="187" height="100" viewBox="0 0 187 100" fill="none" xmlns="http://www.w3.org/2000/svg">
<path d="M69.592 54.832H74.968V58H65.488V41.152H69.592V54.832ZM83.0215 58.192C81.7095 58.192 80.5255 57.912 79.4695 57.352C78.4295 56.792 77.6055 55.992 76.9975 54.952C76.4055 53.912 76.1095 52.696 76.1095 51.304C76.1095 49.928 76.4135 48.72 77.0215 47.68C77.6295 46.624 78.4615 45.816 79.5175 45.256C80.5735 44.696 81.7575 44.416 83.0695 44.416C84.3815 44.416 85.5655 44.696 86.6215 45.256C87.6775 45.816 88.5095 46.624 89.1175 47.68C89.7255 48.72 90.0295 49.928 90.0295 51.304C90.0295 52.68 89.7175 53.896 89.0935 54.952C88.4855 55.992 87.6455 56.792 86.5735 57.352C85.5175 57.912 84.3335 58.192 83.0215 58.192ZM83.0215 54.64C83.8055 54.64 84.4695 54.352 85.0135 53.776C85.5735 53.2 85.8535 52.376 85.8535 51.304C85.8535 50.232 85.5815 49.408 85.0375 48.832C84.5095 48.256 83.8535 47.968 83.0695 47.968C82.2695 47.968 81.6055 48.256 81.0775 48.832C80.5495 49.392 80.2855 50.216 80.2855 51.304C80.2855 52.376 80.5415 53.2 81.0535 53.776C81.5815 54.352 82.2375 54.64 83.0215 54.64ZM97.2948 44.416C98.2388 44.416 99.0628 44.608 99.7668 44.992C100.487 45.376 101.039 45.88 101.423 46.504V44.608H105.527V57.976C105.527 59.208 105.279 60.32 104.783 61.312C104.303 62.32 103.559 63.12 102.551 63.712C101.559 64.304 100.319 64.6 98.8308 64.6C96.8468 64.6 95.2388 64.128 94.0068 63.184C92.7748 62.256 92.0708 60.992 91.8948 59.392H95.9508C96.0788 59.904 96.3828 60.304 96.8628 60.592C97.3428 60.896 97.9348 61.048 98.6388 61.048C99.4868 61.048 100.159 60.8 100.655 60.304C101.167 59.824 101.423 59.048 101.423 57.976V56.08C101.023 56.704 100.471 57.216 99.7668 57.616C99.0628 58 98.2388 58.192 97.2948 58.192C96.1908 58.192 95.1908 57.912 94.2948 57.352C93.3988 56.776 92.6868 55.968 92.1588 54.928C91.6468 53.872 91.3908 52.656 91.3908 51.28C91.3908 49.904 91.6468 48.696 92.1588 47.656C92.6868 46.616 93.3988 45.816 94.2948 45.256C95.1908 44.696 96.1908 44.416 97.2948 44.416ZM101.423 51.304C101.423 50.28 101.135 49.472 100.559 48.88C99.9988 48.288 99.3108 47.992 98.4948 47.992C97.6788 47.992 96.9828 48.288 96.4068 48.88C95.8468 49.456 95.5668 50.256 95.5668 51.28C95.5668 52.304 95.8468 53.12 96.4068 53.728C96.9828 54.32 97.6788 54.616 98.4948 54.616C99.3108 54.616 99.9988 54.32 100.559 53.728C101.135 53.136 101.423 52.328 101.423 51.304ZM114.592 58.192C113.28 58.192 112.096 57.912 111.04 57.352C110 56.792 109.176 55.992 108.568 54.952C107.976 53.912 107.68 52.696 107.68 51.304C107.68 49.928 107.984 48.72 108.592 47.68C109.2 46.624 110.032 45.816 111.088 45.256C112.144 44.696 113.328 44.416 114.64 44.416C115.952 44.416 117.136 44.696 118.192 45.256C119.248 45.816 120.08 46.624 120.688 47.68C121.296 48.72 121.6 49.928 121.6 51.304C121.6 52.68 121.288 53.896 120.664 54.952C120.056 55.992 119.216 56.792 118.144 57.352C117.088 57.912 115.904 58.192 114.592 58.192ZM114.592 54.64C115.376 54.64 116.04 54.352 116.584 53.776C117.144 53.2 117.424 52.376 117.424 51.304C117.424 50.232 117.152 49.408 116.608 48.832C116.08 48.256 115.424 47.968 114.64 47.968C113.84 47.968 113.176 48.256 112.648 48.832C112.12 49.392 111.856 50.216 111.856 51.304C111.856 52.376 112.112 53.2 112.624 53.776C113.152 54.352 113.808 54.64 114.592 54.64Z" fill="#F8F7F9"/>
</svg>
